<svg width="100%" height="100%" viewBox="0 0 222 222" version="1.1" xmlns="http://www.w3.org/2000/svg" xmlns:xlink="http://www.w3.org/1999/xlink" xml:space="preserve" style="fill-rule:evenodd;clip-rule:evenodd;stroke-linecap:round;stroke-linejoin:round;stroke-miterlimit:1.41421;"><g id="Layer1"><circle cx="111" cy="111.289" r="110" style="fill:#1b4d3e;stroke-width:1.5px;stroke:#000;"/><circle cx="111" cy="111.289" r="85.408" style="fill:#fff;stroke-width:1.5px;stroke:#000;"/><path d="M117.792,103.042c3.234,-2.796 5.417,-5.799 6.549,-9.01c1.132,-3.211 1.698,-6.873 1.698,-10.985c0,-8.594 -1.767,-14.982 -5.302,-19.163c-3.534,-4.182 -8.397,-6.272 -14.588,-6.272c-2.726,0 -5.349,0.392 -7.867,1.178c-2.518,0.785 -4.516,2.102 -5.995,3.95c1.802,0.37 3.246,1.19 4.332,2.461c1.086,1.27 1.629,2.876 1.629,4.816c0,2.311 -0.751,4.159 -2.253,5.545c-1.501,1.386 -3.361,2.079 -5.579,2.079c-2.171,0 -3.962,-0.705 -5.371,-2.114c-1.409,-1.409 -2.114,-3.199 -2.114,-5.371c0,-3.835 2.218,-7.254 6.653,-10.257c4.991,-3.419 11.413,-5.129 19.268,-5.129c5.914,0 11.112,1.028 15.593,3.084c4.482,2.056 7.971,5.013 10.466,8.871c2.495,3.858 3.742,8.398 3.742,13.619c0,7.762 -2.842,14.323 -8.525,19.683c-5.683,5.36 -13.468,9.31 -23.356,11.851l0,20.723l-2.841,0l0,-22.04c6.006,-2.217 10.627,-4.724 13.861,-7.519ZM109.995,150.863c1.409,0.808 2.518,1.917 3.327,3.326c0.808,1.41 1.213,2.923 1.213,4.54c0,1.617 -0.405,3.119 -1.213,4.505c-0.809,1.386 -1.918,2.495 -3.327,3.326c-1.409,0.832 -2.922,1.248 -4.539,1.248c-1.618,0 -3.131,-0.416 -4.54,-1.248c-1.409,-0.831 -2.518,-1.94 -3.327,-3.326c-0.808,-1.386 -1.213,-2.888 -1.213,-4.505c0,-1.617 0.405,-3.13 1.213,-4.54c0.809,-1.409 1.918,-2.518 3.327,-3.326c1.409,-0.809 2.922,-1.213 4.54,-1.213c1.617,0 3.13,0.404 4.539,1.213Z" style="fill:#80302d;fill-rule:nonzero;stroke-width:1.5px;stroke-linecap:butt;stroke:#252525;"/></g></svg>