<svg xmlns="http://www.w3.org/2000/svg" xmlns:xlink="http://www.w3.org/1999/xlink" width="100" height="100" viewBox="0 0 153 154" version="1.1" xml:space="preserve" stroke-linejoin="round"><g id="Layer1"><title>ATM</title><rect x="1.69" y="23" width="150" height="110"/><path d="M52.97 105.08l-14.73 0 -1.06-6.88 -9.6 0 -1.16 6.88 -14.73 0 12.68-54.17 17.43 0 11.18 54.17ZM35.51 86.6l-0.92-6.31c-0.02-0.02-0.07-0.34-0.14-0.95 -0.05-0.51-0.28-2.55-0.72-6.1 -0.04-0.4-0.1-0.94-0.17-1.63 -0.07-0.69-0.16-1.56-0.27-2.61l-0.44-5.12c-0.05 0.49-0.11 1.04-0.19 1.65 -0.08 0.61-0.16 1.27-0.26 2 -0.16 1.45-0.27 2.46-0.34 3.02 -0.07 0.56-0.11 0.9-0.14 1.02l-0.99 6.56 -1.43 8.49 6.01 0Z"/><path d="M75.53 105.08l-14.25 0 0-41.19 -7.86 0 0-12.98 30.28 0 0 12.98 -8.17 0 0 41.19Z"/><path d="M141.69 105.08l-14.9 0 -1.06-24.7 -0.44-9.86c-0.16 1.89-0.34 3.7-0.55 5.42 -0.2 1.72-0.45 3.39-0.75 5l-4.48 24.14 -11.62 0 -3.83-24.17c-0.23-1.4-0.54-3.81-0.92-7.23 -0.05-0.51-0.15-1.57-0.31-3.16l-0.34 10 -1.26 24.56 -15.17 0 6.15-54.17 17.74 0 2.97 18.24c0.25 1.5 0.47 3.12 0.67 4.88 0.19 1.75 0.37 3.66 0.53 5.72 0.3-3.44 0.71-6.51 1.23-9.23l3.62-19.61 17.6 0 5.13 54.17Z"/></g></svg>