<svg xmlns="http://www.w3.org/2000/svg" xmlns:xlink="http://www.w3.org/1999/xlink" width="100" height="100" viewBox="0 0 134 154" version="1.1" xml:space="preserve" stroke-linejoin="round"><g id="Layer1"><title>Bar Games</title><circle cx="66.7" cy="78" r="65" style="fill:none"/><circle cx="66.7" cy="65" r="34.67"/><path d="M74.49 64.15c4.32 1.88 6.48 5.17 6.48 9.87 0 3.65-1.35 6.68-4.07 9.08 -2.71 2.38-6.12 3.58-10.22 3.58 -3.97 0-7.34-1.22-10.11-3.66 -2.76-2.46-4.15-5.45-4.15-8.97 0-4.7 2.38-7.99 7.13-9.89 -4.19-1.43-6.29-4.34-6.29-8.75 0-3.49 1.25-6.37 3.74-8.64 2.51-2.28 5.68-3.41 9.51-3.41 3.94 0 7.19 1.12 9.76 3.36 2.62 2.24 3.93 5.03 3.93 8.37 0 2.17-0.45 3.97-1.35 5.42 -0.9 1.45-2.36 2.67-4.36 3.66ZM69.45 72.79c0-2.82-0.92-4.23-2.76-4.23 -0.4 0-0.76 0.11-1.1 0.33 -0.33 0.22-0.62 0.52-0.87 0.89 -0.24 0.38-0.43 0.84-0.57 1.37 -0.13 0.53-0.2 1.12-0.2 1.75 0 1.25 0.26 2.25 0.77 2.99 0.52 0.75 1.19 1.13 2.02 1.13 0.4 0 0.76-0.1 1.1-0.31 0.33-0.21 0.62-0.5 0.85-0.87 0.24-0.37 0.42-0.81 0.56-1.33 0.14-0.51 0.2-1.09 0.2-1.72ZM69.09 55.99c0-1.1-0.22-1.99-0.65-2.66 -0.43-0.67-1.01-1-1.73-1 -0.7 0-1.26 0.32-1.68 0.95 -0.42 0.63-0.62 1.47-0.62 2.52 0 2.55 0.79 3.82 2.36 3.82 1.55 0 2.33-1.21 2.33-3.63Z" style="fill:none"/></g></svg>