<svg xmlns="http://www.w3.org/2000/svg" xmlns:xlink="http://www.w3.org/1999/xlink" width="100" height="100" viewBox="0 0 60 154" version="1.1" xml:space="preserve" style="stroke-linecap:round;stroke-linejoin:round"><g id="Layer1"><title>Beer</title><g><path d="M1.4 28.586c0 0 4.599-4.879 28.786-4.879 24.186 0 27.81 4.879 27.81 4.879"/><path d="M4.357 7.453c0 0-3.655 15.535-3.337 25.91 0.317 10.348 0.468 23.436 2.41 34.949 1.942 11.513 6.045 32.732 5.939 40.283 -0.106 7.552 0.408 27.926-3.726 37.538 -2.26 5.256 10.504 6.778 24.048 6.867 13.543-0.089 26.308-1.611 24.047-6.867 -4.134-9.612-3.62-29.986-3.726-37.538 -0.105-7.551 3.997-28.77 5.939-40.283 1.942-11.513 2.176-24.601 2.411-34.949 0.235-10.377-2.626-25.91-2.626-25.91 0 0-3.63-4.453-25.119-4.453 -21.489 0-26.26 4.453-26.26 4.453Z"/><path d="M12.292 133.961c0 0 3.076 2.95 17.702 2.95 14.625 0 17.114-2.95 17.114-2.95"/></g></g></svg>