<svg xmlns="http://www.w3.org/2000/svg" xmlns:xlink="http://www.w3.org/1999/xlink" width="100" height="100" viewBox="0 0 153 154" version="1.1" xml:space="preserve" style="stroke-linecap:round;stroke-linejoin:round"><g id="Layer1"><title>Beer Garden</title><path d="M112.49 38.51c-10.78 0.41-23.1 0.64-36.18 0.64 -13.08 0-36.52-0.8-36.68-0.88 4.05-17.01 14.91-30.15 28.43-34.01 2.71-0.17 5.46-0.25 8.24-0.25 2.79 0 5.54 0.09 8.24 0.25 13.52 3.86 24.38 16.99 28.43 34.01 -0.15 0.08-0.32 0.16-0.49 0.24Z"/><path d="M149.66 35.33c-9.69 2.21-38.88 3.82-73.36 3.82 -34.47 0-63.67-1.61-73.36-3.82 9.69-18.13 38.89-31.32 73.36-31.32 34.47 0 63.67 13.19 73.36 31.32Z"/><path d="M109.69 46.43c-9.84 0.22-19.98 0.25-32.31 0.25 -13.17 0-32.97-0.64-32.97-0.64l-4.8-7.74c10.98 0.41 24.9 0.86 38.2 0.86 34.45 0 62.14-1.56 71.84-3.76 -0.02-0.05 1.98 3.11 1.53 7.79 -6.22 1.62-15.58 2.56-32.33 3.05l-5.76-7.58 -3.4 7.78ZM39.62 38.28l-4.34 7.39c-18-0.87-27.67-2.19-34.03-3.84 1.58-6.29 1.73-6.5 1.7-6.51 5.93 1.35 19.29 2.31 36.67 2.96Z"/><rect x="72.9" y="1.51" width="6.81" height="2.51"/><rect x="74.99" y="0" width="2.62" height="1.51"/><rect x="75.2" y="46.68" width="2.21" height="103.32"/></g></svg>