<svg xmlns="http://www.w3.org/2000/svg" xmlns:xlink="http://www.w3.org/1999/xlink" width="100" height="100" viewBox="0 0 64 153" version="1.1" xml:space="preserve" style="stroke-linecap:round;stroke-linejoin:round"><g id="Layer1"><path d="M36.97 80.09c1.6 8.07 3.48 8.21 6.45 13.02 2.98 4.82 7.24 11.22 8.13 12.7 0.9 1.47-0.38 4.29-1.06 5.81 -0.68 1.52 0.09 7.48 0.55 9.21 0.46 1.74 0.65 10.78-0.55 12.63 -0.95 1.48-3.08 3.67-3.07 5.77 0.01 2.11 1.34 3.99 1.75 8.49 0.01 0.08 0.66-0.06 0.66-0.06 0 0-0.03-4.77-0.48-5.42 -0.45-0.64 3.68 2.18 3.85 6.64 0.07 1.98 1.34 1.94 2.59 1.95 1.25 0.01 4.69 0.38 5.08 0 0.39-0.38 0.99-1.61 0.53-2.8 -0.46-1.19-4.48-2.09-5.01-5.69 -0.53-3.6-1.35-7.77-0.61-10.44 0.73-2.66 4.39-14.71 4.47-21.01 0.05-3.93 1.22-5.15 0.23-9.84 -1.3-6.16-3.83-15.49-5.97-18.92 -2.14-3.44-6.96-9.94-6.15-13.04"/><path d="M26.56 12.59c1.53-1.9 8.17-2.07 9.99 0.05 0.97 1.14 1.93 3.3 1.93 6.36 0 4.94-3.12 8.96-6.97 8.96 -3.85 0-6.97-4.01-6.97-8.96 0-3.09 1.56-5.83 2.02-6.41Z"/><path d="M27.92 52.31c-1.99-2.9-3.45-5.69-3.38-5.88 0.19-0.55 6.59-9.17 8.41-10.44 1.82-1.27 4.79-3.9 5.04-6.37 0.07-0.71 0.2-2.64 0.19-2.65 0 0 0.87 0.08 1.45 0.19 1.78 0.32 3.75 1.33 4.68 1.75 0.93 0.42 3.09 7.15 4.13 8.56 1.03 1.42 1.62 3.4 1.59 5.44 -0.03 2.04-1.8 11.09-1.85 11.72 -0.04 0.63-0.66 6.61-0.89 7.02 -0.46 0.82 2.88 3.51 3.2 4.37 0.32 0.86-12.8 13.26-13.65 13.98 -0.15 0.13-2.1 0.03-2.28 0 -0.13-0.02 0.37-3.5-0.29-5.38 -0.66-1.87-2.19-5.99-4.32-8.15 -2.12-2.16-4.36-5.25-6.05-4.86 -1.12 0.26-2.68 3.25-2.68 3.22 0.55-3.25 2.04-4.53 4.86-5.77 1.19-0.52 2.19-1.24 2.72-2.12"/><path d="M24.54 46.65c0 0-2.97-4.1-4.5-3.79 -1.54 0.31-8.16 4.88-8.23 5.29 -0.07 0.42 9.59 1.74 12.15 2 2.56 0.26 3.27 1.55 3.92 2.12 0.64 0.57 1.65 4.61 0.94 4.69 -0.06 0.01-0.23 0.58-1.31 1.35 -0.24 0.17-1.12 0.7-1.36 0.7 -0.24 0-2.28-4.78-4.77-4.79 -2.49-0.01-15.5-1.49-16.51-1.52 -1.84-0.05-3.44-1.02-1.39-4.42 1.01-1.68 6.04-5.94 6.84-6.64 0.8-0.7 7.87-7.25 9.28-8.19 1.41-0.94 3.86-1.24 5.32-2.25 1.46-1.01 3.3-2.8 3.4-4.22"/><path d="M21.23 64.89c-1.32 3.33-1.9 8.15-1.94 10.23 -0.16 8.49-0.06 19.26-0.52 21.82 -0.46 2.56-2.02 7.12-3.71 10.55 -1.69 3.43-1.24 14.22-0.13 18.38 1.11 4.16 1.84 6.99 1.06 7.95 -0.78 0.96-2.92 2.22-3.25 6.76 -0.05 0.65 0.89 6.85 0.86 7.45 -0.01 0.16 0.46 0.09 0.48 0 0.24-1.26 0.05-5.69 0.21-6 0.33-0.65 1.89 2.83 2.07 3.61 0.18 0.78-0.18 3.05 0.18 3.5 0.37 0.46 4.73 1.96 7.99 1.66 0.56-0.05 0.95-2.26 0.6-2.91 -0.45-0.84-4.01-3.66-3.91-7.08 0.16-5.62-1.4-8.07-1.19-10.88 0.13-1.68 2.12-16.33 3.27-19.49 1.15-3.16 1.86-4.89 2.85-6.46 0.99-1.57 2.32-2.81 2.95-6.34 0.62-3.53 5.36-15.18 5.46-17.53"/><path d="M36.97 24.82c0 0 0.15 1.94 1.51 2.15"/><path d="M45.18 29.91c0.01 1.13 0.72-4.51-0.22-6.84 -0.94-2.33-2.36-2.36-2.43-4.65 -0.07-2.29 0.25-3.88-0.4-5.81 -0.66-1.93-1.32-1.36-1.17-3.59 0.15-2.23 0.29-2.87-0.24-4.42 -0.54-1.55-3.91-2.8-5.58-2.92 -1.81-0.13-2.41-0.73-3.98-0.67 -1.76 0.06-4.23 1.14-5 1.44 -1.19 0.45-1.57 1.83-2.12 2.31 -1 0.87-0.95 2.46-1.13 3.45 -0.18 0.98-0.26 2.92-1.21 4.09 -0.95 1.17 0.48 2.15-1.45 3.87 -1.93 1.72-5.18 6.19-6.39 9.77 -1.21 3.58-0.79 4.39-0.84 5.86 -0.05 1.47 1.08 3.11 1.94 4.16"/></g></svg>