<svg xmlns="http://www.w3.org/2000/svg" xmlns:xlink="http://www.w3.org/1999/xlink" width="100" height="100" viewBox="0 0 79 154" version="1.1" xml:space="preserve" stroke-linejoin="round"><g id="Layer1"><title>Cash Only</title><path d="M48.67 2l0 14.8c5.94 0.96 10.8 2.92 14.58 5.89 3.78 2.97 7.38 7.53 10.8 13.67l-14.73 8.23c-4.43-8.06-10.22-12.08-17.37-12.08 -4.43 0-8.11 1.31-11.03 3.93 -2.92 2.62-4.38 5.89-4.38 9.82 0 3.58 1.18 6.55 3.55 8.91 2.32 2.32 7 5.06 14.05 8.23 6.09 2.77 11.13 5.38 15.11 7.82 3.98 2.44 6.97 4.8 8.99 7.06 5.69 6.14 8.54 13.57 8.54 22.28 0 8.56-2.57 16.11-7.7 22.66 -5.09 6.5-11.88 10.88-20.39 13.14l0 15.63 -13.22 0 0-15.18c-9.87-1.61-17.4-5.01-22.58-10.2 -5.19-5.19-9.01-13.19-11.48-24.02l16.62-3.47c2.27 7.65 5.04 13.12 8.31 16.39 3.42 3.12 7.98 4.68 13.67 4.68 5.54 0 10.17-1.79 13.9-5.36 3.68-3.52 5.51-8.08 5.51-13.67 0-4.99-1.54-8.99-4.61-12.01 -1.56-1.46-3.86-3.11-6.91-4.95 -3.05-1.84-6.94-3.84-11.67-6 -9.77-4.38-16.19-8.41-19.26-12.08 -4.88-5.49-7.33-12.06-7.33-19.71 0-3.63 0.58-7 1.74-10.12 1.16-3.12 2.83-5.95 5.02-8.5 2.19-2.54 4.9-4.74 8.12-6.61 3.22-1.86 6.87-3.32 10.95-4.38l0-14.8 13.22 0Z"/></g></svg>