<svg xmlns="http://www.w3.org/2000/svg" xmlns:xlink="http://www.w3.org/1999/xlink" width="100" height="100" viewBox="0 0 103 154" version="1.1" xml:space="preserve" stroke-linejoin="round"><g id="Layer1"><title>EFTPOS</title><path d="M101 12c0-5.52-4.48-10-10-10l-80 0c-5.52 0-10 4.48-10 10l0 130c0 5.52 4.48 10 10 10l80 0c5.52 0 10-4.48 10-10l0-130Z"/><rect x="40.52" y="16.04" width="20.96" height="20.96"/><path d="M71.48 67l0 70"/><path d="M61.48 67l0 70"/><path d="M39.2 136.71l-24.53 0 0-3.69c0-1.64 0.13-2.95 0.38-3.92 0.25-0.99 0.68-1.82 1.29-2.49 0.63-0.69 1.4-1.23 2.34-1.64 0.94-0.41 1.9-0.62 2.86-0.62 1.76 0 3.25 0.67 4.47 2.02 0.45-1.3 1.22-2.33 2.34-3.08 1.1-0.76 2.38-1.14 3.85-1.14 1.92 0 3.54 0.68 4.86 2.03 0.82 0.82 1.38 1.73 1.7 2.75 0.31 1.11 0.46 2.51 0.46 4.18l0 5.61ZM25.2 133.01l0-1.16c0-1.38-0.3-2.39-0.91-3.03 -0.61-0.64-1.51-0.96-2.69-0.96 -1.15 0-2.03 0.33-2.63 0.99 -0.6 0.66-0.9 1.61-0.9 2.86l0 1.3 7.13 0ZM35.72 133.01l0-2.29c0-1.67-0.33-2.9-0.98-3.69 -0.71-0.83-1.61-1.24-2.7-1.24 -1.06 0-1.95 0.4-2.67 1.19 -0.71 0.77-1.06 2.16-1.06 4.15l0 1.88 7.42 0Z"/><path d="M33.24 103.42l0 10.5 5.96 2.73 0 3.99 -26.07-12.14 26.08-11.71 0 4.05 -5.96 2.57ZM29.76 104.93l-8.34 3.64 8.34 3.81 0-7.45Z"/><path d="M39.2 93.73l-26.2 0 18.72-17.89 -17.05 0 0-3.7 26.03 0 -18.67 17.89 17.18 0 0 3.7Z"/><path d="M24.46 62.56l-9.79-9.55 0-4.94 11.11 11.09 13.43-11.15 0 4.96 -10.92 8.83 0.76 0.76 10.15 0 0 3.7 -24.53 0 0-3.7 9.79 0Z"/></g></svg>