<svg xmlns="http://www.w3.org/2000/svg" xmlns:xlink="http://www.w3.org/1999/xlink" width="100" height="100" viewBox="0 0 55 154" version="1.1" xml:space="preserve" stroke-linejoin="round"><g id="Layer1"><title>Kitchen</title><path d="M20.91 2.88c1.45 0.82 3.38 2.14 3.38 3.63l1.5 36.76c0 0.07 0 0.14-0.01 0.21 0 0.13 0.01 0.25 0.01 0.38 0 5.54-3.91 10.18-9.14 11.36 -0.06 1.57-0.76 21.85 0 30.86 1.24 14.54 7.42 56.3 7.42 56.3 0.13 0.49 0.19 0.99 0.19 1.51 0 4.33-4.57 7.84-10.21 7.84 -5.63 0-10.21-3.51-10.21-7.84 0-0.52 0.07-1.02 0.19-1.51 0 0 6.18-41.76 7.42-56.3 0.77-9 0.06-29.28 0-30.86 -5.23-1.17-9.14-5.81-9.14-11.36 0-0.13 0-0.25 0.01-0.38 0-0.07-0.01-0.14-0.01-0.21l1.49-36.76c0-1.49 1.94-2.81 3.4-3.64l0 31.02c0 0.48 0.42 0.87 0.93 0.87l3.16 0c0.52 0 0.93-0.39 0.93-0.87 0 0-0.14-22.06 0-27.37 0.04-1.52 0.84-4.52 0.84-4.52l1.53 0c0 0 0.85 3 0.89 4.52 0.15 5.32 0 27.37 0 27.37 0 0.48 0.42 0.87 0.93 0.87l3.56 0c0.52 0 0.93-0.39 0.93-0.87l0-31.01Z"/><path d="M46.36 70.94c2.09 23.33 6.58 71.7 6.58 71.7 0.12 0.49 0.19 1 0.19 1.51 0 4.33-4.57 7.85-10.21 7.85 -5.63 0-10.21-3.51-10.21-7.84 0-0.52 0.07-1.02 0.19-1.51 0 0 4.46-48.04 6.56-71.45 -1.51-0.61-2.54-1.82-2.54-3.22 -6.28-28.87-7.73-48.58 0.74-58.11 3.95-4.44 6.81-6.14 9.24-6.13 2.24 0.01 4.73 0.86 4.73 2.87l-3.25 61.38c0 1.23-0.8 2.32-2.02 2.98Z"/></g></svg>