<svg xmlns="http://www.w3.org/2000/svg" xmlns:xlink="http://www.w3.org/1999/xlink" width="100" height="100" viewBox="0 0 121 154" version="1.1" xml:space="preserve" stroke-linejoin="round"><g id="Layer1"><title>Live Music</title><path d="M40.05 33.08l67.66-21.08 0 94.18c0 7.03-0.89 12.33-2.68 15.9 -1.78 3.57-4.82 6.52-9.1 8.84 -4.28 2.32-9.11 3.49-14.49 3.49 -6.18 0-11.11-1.77-14.79-5.31 -3.68-3.54-5.52-8.12-5.52-13.73 0-5.67 2.18-10.55 6.55-14.66 4.36-4.11 10-6.16 16.92-6.16 2.27 0 4.26 0.2 5.99 0.6 1.73 0.4 4.55 1.42 8.46 3.06l0-61.54 -50.58 15.73 0 71.06c0 6.86-0.91 12.2-2.72 16.02 -1.81 3.83-4.93 6.87-9.35 9.14 -4.42 2.27-9.24 3.4-14.45 3.4 -6.18 0-11.06-1.74-14.66-5.23 -3.6-3.48-5.4-8.03-5.4-13.64 0-5.95 2.15-10.95 6.46-15 4.31-4.05 9.95-6.08 16.92-6.08 4.42 0 9.35 1.3 14.79 3.91l0-82.88Z"/></g></svg>