<svg xmlns="http://www.w3.org/2000/svg" xmlns:xlink="http://www.w3.org/1999/xlink" width="100" height="100" viewBox="0 0 153 154" version="1.1" xml:space="preserve" style="stroke-linecap:round;stroke-linejoin:round"><g id="Layer1"><title>Pokies</title><rect x="8.63" y="45.86" width="38.57" height="64.29"/><rect x="56.84" y="45.86" width="38.57" height="64.29"/><rect x="105.06" y="45.86" width="38.57" height="64.29"/><path d="M24.82 97.49l-11.36 0 9.41-20.75c0.71-1.53 1.47-3.04 2.29-4.53 0.82-1.49 1.73-3 2.75-4.53l-13.24 0 0-9.16 27.71 0 -17.57 38.98Z"/><path d="M73.03 97.49l-11.36 0 9.41-20.75c0.71-1.53 1.47-3.04 2.29-4.53 0.82-1.49 1.73-3 2.75-4.53l-13.24 0 0-9.16 27.71 0 -17.56 38.98Z"/><path d="M121.24 97.49l-11.36 0 9.41-20.75c0.71-1.53 1.47-3.04 2.29-4.53 0.82-1.49 1.73-3 2.75-4.53l-13.24 0 0-9.16 27.71 0 -17.57 38.98Z"/><rect x="1.13" y="23" width="150" height="110"/></g></svg>