<svg xmlns="http://www.w3.org/2000/svg" xmlns:xlink="http://www.w3.org/1999/xlink" width="100" height="100" viewBox="0 0 65 154" version="1.1" xml:space="preserve" style="stroke-linecap:round;stroke-linejoin:round"><g id="Layer1"><path d="M25.13 142.64c0 0 5.63-3.09 5.52-14.09 -0.05-4.77-0.57-51.46-0.57-51.46 -15.91-1.17-28.47-14.46-28.47-30.67 0-0.1 0-0.2 0-0.3 0-0.07 0-0.14 0-0.21 0 0-0.17-7.55 0.68-11.19 1.68-7.15 7.43-25.45 9.41-31.69 0.03-0.01 0.09-0.02 0.16-0.03 0.32-0.55 9.38-1 20.49-1 11.08 0 20.13 0.44 20.49 0.99 0.06 0.01 0.11 0.02 0.14 0.03 1.98 6.25 7.75 24.62 9.44 31.77 0.85 3.61 0.68 11.12 0.68 11.12 0 0.07 0 0.14 0 0.21 0 0.1 0 0.2 0 0.3 0 16.26-12.64 29.59-28.62 30.68 0 0-0.38 46.69-0.42 51.45 -0.08 11 5.52 14.09 5.52 14.09"/><path d="M37.19 140.27c14.88 0.41 25.92 2.87 25.92 5.83 0 3.25-13.78 5.89-30.75 5.89 -16.97 0-30.75-2.64-30.75-5.89 0-2.97 11.06-5.43 25.96-5.83"/></g></svg>